<?xml version="1.0" standalone="no"?>
<!DOCTYPE svg PUBLIC "-//W3C//DTD SVG 20010904//EN"
 "http://www.w3.org/TR/2001/REC-SVG-20010904/DTD/svg10.dtd">
<svg version="1.0" xmlns="http://www.w3.org/2000/svg"
 width="75.000000pt" height="87.000000pt" viewBox="0 0 75.000000 87.000000"
 preserveAspectRatio="xMidYMid meet">
<metadata>
Created by potrace 1.15, written by Peter Selinger 2001-2017
</metadata>
<g transform="translate(0.000000,87.000000) scale(0.100000,-0.100000)"
fill="#000000" stroke="none">
<path d="M75 809 l-45 -42 0 -368 0 -369 293 2 292 3 3 363 2 362 -35 0 -35 0
0 -75 c0 -41 -3 -75 -6 -75 -3 0 -19 8 -34 17 -27 15 -30 15 -54 0 -14 -9 -28
-17 -31 -17 -3 0 -5 34 -5 75 l0 75 -157 0 c-155 0 -156 0 -138 20 17 19 31
20 277 20 l258 0 0 -360 c0 -198 4 -360 8 -360 5 0 16 8 26 18 15 17 16 55 14
383 l-3 364 -293 3 -292 2 -45 -41z"/>
</g>
</svg>
