<?xml version="1.0" standalone="no"?>
<!DOCTYPE svg PUBLIC "-//W3C//DTD SVG 20010904//EN"
 "http://www.w3.org/TR/2001/REC-SVG-20010904/DTD/svg10.dtd">
<svg version="1.0" xmlns="http://www.w3.org/2000/svg"
 width="85.000000pt" height="82.000000pt" viewBox="0 0 85.000000 82.000000"
 preserveAspectRatio="xMidYMid meet">
<metadata>
Created by potrace 1.15, written by Peter Selinger 2001-2017
</metadata>
<g transform="translate(0.000000,82.000000) scale(0.100000,-0.100000)"
fill="#000000" stroke="none">
<path d="M34 786 c-3 -8 -4 -29 -2 -48 l3 -33 385 0 385 0 0 45 0 45 -383 3
c-323 2 -383 0 -388 -12z"/>
<path d="M30 615 l0 -45 320 0 320 0 0 45 0 45 -320 0 -320 0 0 -45z"/>
<path d="M34 516 c-3 -8 -4 -29 -2 -48 l3 -33 154 -3 c166 -3 171 -1 171 49 0
45 -14 49 -172 49 -118 0 -150 -3 -154 -14z"/>
<path d="M37 383 c-4 -3 -7 -24 -7 -45 l0 -38 355 0 355 0 0 45 0 45 -348 0
c-192 0 -352 -3 -355 -7z"/>
<path d="M30 205 l0 -45 275 0 275 0 0 45 0 45 -275 0 -275 0 0 -45z"/>
<path d="M34 106 c-3 -8 -4 -29 -2 -48 l3 -33 385 0 385 0 0 45 0 45 -383 3
c-323 2 -383 0 -388 -12z"/>
</g>
</svg>
